<svg version="1.1" id="Layer_1" xmlns="http://www.w3.org/2000/svg" xmlns:xlink="http://www.w3.org/1999/xlink" x="0px" y="0px"
	 width="100%" viewBox="190 80 650 500" xml:space="preserve">
<path fill="currentColor" opacity="1.000000" stroke="none"
	d="
M614.973145,357.857727
	C612.423096,364.607635 610.873230,371.234131 609.285645,377.861145
	C605.335693,394.349640 591.468689,405.337494 574.504211,405.358276
	C533.509460,405.408508 492.514496,405.408539 451.519714,405.360291
	C434.955017,405.340790 420.632446,394.754333 417.028290,378.833679
	C412.711365,359.764221 404.529297,343.015533 391.999359,327.907043
	C376.703125,309.463013 366.368439,288.245911 361.436218,264.673004
	C351.759766,218.425674 361.211212,176.588348 391.081207,139.732025
	C413.270325,112.353012 441.906952,95.026260 476.127716,87.303001
	C523.525757,76.605759 567.816467,84.294312 607.372131,112.949600
	C639.896912,136.511597 660.017212,168.493301 666.368042,208.452820
	C673.887634,255.766754 660.863892,297.234894 629.809692,333.342163
	C623.581482,340.583893 618.081116,348.268890 614.973145,357.857727
M517.507568,256.079132
	C519.468689,253.939789 518.610107,251.306290 518.602844,248.906219
	C518.566650,237.082611 518.407715,225.299545 522.565308,213.917801
	C533.233215,184.713593 564.700073,178.871017 584.512329,195.374924
	C605.440125,212.808151 605.288086,244.686325 584.938416,263.281525
	C574.377136,272.932220 561.611267,277.833405 548.081604,281.132080
	C544.755981,281.942902 543.220520,283.190826 543.231384,286.727570
	C543.312805,313.218597 543.327148,339.710175 543.219604,366.200989
	C543.204895,369.827087 544.687073,370.773010 548.006714,370.696167
	C555.000610,370.534210 562.011169,370.421509 568.994812,370.735107
	C573.195679,370.923737 574.964844,369.275879 575.679810,365.303375
	C576.500977,360.741028 577.722961,356.237976 578.987793,351.770599
	C583.858765,334.566071 594.099609,320.507965 604.968140,306.682343
	C625.030823,281.160980 634.219116,252.309647 631.000916,219.627731
	C628.539062,194.627228 618.892395,173.208572 601.127380,155.476852
	C573.605469,128.006500 540.306580,116.793877 501.776642,120.123207
	C471.510437,122.738487 445.604950,134.636475 424.729462,156.696487
	C398.647125,184.258774 391.012451,217.421997 396.957794,254.132248
	C400.651520,276.939484 411.801910,296.346008 426.387177,313.870300
	C434.038635,323.063629 439.987549,333.109894 444.121368,344.339386
	C446.712952,351.379364 448.742554,358.550781 450.384674,365.840607
	C451.153778,369.254700 452.655823,370.902985 456.495728,370.733826
	C463.479858,370.426147 470.492798,370.481689 477.482819,370.713898
	C481.412842,370.844452 482.720367,369.403473 482.709320,365.505890
	C482.636566,339.849152 482.602722,314.190338 482.904388,288.536255
	C482.964539,283.421051 481.413269,281.235657 476.364899,280.235718
	C467.510681,278.481934 459.253113,274.904449 451.457733,270.286804
	C430.963013,258.146667 420.640350,233.297333 430.580048,211.027588
	C438.815552,192.575989 458.800323,182.213760 477.713470,187.885193
	C492.884216,192.434372 500.970306,203.785950 505.263824,218.319519
	C508.412689,228.978394 508.759216,239.965393 508.245239,250.945816
	C508.020264,255.752869 509.828217,257.322174 514.282043,256.673309
	C515.103455,256.553650 515.937622,256.522217 517.507568,256.079132
M514.254944,370.650726
	C518.941956,371.035736 518.645264,367.749634 518.645508,364.686493
	C518.647400,340.240753 518.558044,315.794403 518.731201,291.349884
	C518.762878,286.879486 517.538513,285.276093 512.838440,285.199127
	C507.689697,285.114838 507.271912,287.559998 507.291595,291.629852
	C507.408966,315.908752 507.459076,340.189362 507.254883,364.467102
	C507.215057,369.197601 508.537292,371.386261 514.254944,370.650726
M556.627075,215.058472
	C544.282104,218.372787 540.958557,237.548035 544.482727,252.384842
	C549.601807,251.577377 554.361755,249.698196 558.897766,247.289703
	C565.486084,243.791580 570.210449,238.767456 571.992004,231.216858
	C574.249207,221.650223 567.228027,213.656815 556.627075,215.058472
M476.493225,218.997849
	C470.128143,214.080276 465.505646,213.566528 460.190125,217.185867
	C455.253662,220.547134 453.095337,226.692703 454.684204,232.593750
	C457.460968,242.906357 472.624390,252.209183 481.969788,251.570312
	C483.734161,242.075104 482.675964,224.732651 476.493225,218.997849
z"/>
<path fill="currentColor" opacity="1.000000" stroke="none"
	d="
M295.006409,402.649780
	C326.089813,405.247589 355.874146,411.656921 384.813477,421.993927
	C419.742218,434.470337 450.564880,453.887634 478.812897,477.629852
	C488.742859,485.975891 498.626892,494.385376 508.279510,503.047150
	C511.176941,505.647095 512.865173,505.554871 515.706238,503.025696
	C532.359680,488.200531 549.303406,473.698883 567.416687,460.663696
	C600.394470,436.931427 636.843872,420.832275 676.385437,411.650909
	C696.294312,407.028137 716.379456,403.859406 736.822571,402.438141
	C749.947937,401.525604 762.997986,400.967987 776.123047,401.625885
	C778.730713,401.756592 781.123474,401.779388 782.152100,404.815704
	C787.540039,420.718964 792.968140,436.608612 798.358643,452.510986
	C798.564148,453.117401 798.527405,453.805939 798.605835,454.475891
	C796.768372,455.937836 794.705750,455.351562 792.808228,455.338257
	C771.991394,455.192291 751.192688,455.228577 730.441101,457.372467
	C689.041199,461.649475 648.902466,470.997528 610.330200,486.774902
	C577.627258,500.151520 547.571350,518.170837 519.174683,539.044128
	C515.089966,542.046631 512.244141,543.361633 507.188293,539.624329
	C479.537964,519.184814 450.245239,501.398926 418.457184,488.037384
	C386.302795,474.521912 352.968384,465.340210 318.417114,460.175812
	C291.169891,456.103210 263.860352,454.793182 236.387833,455.342499
	C233.427612,455.401703 230.401596,455.853027 227.439484,454.808594
	C226.693726,452.290680 228.151306,450.222534 228.852158,448.113892
	C233.468048,434.225464 238.321945,420.416107 242.926941,406.524170
	C244.088699,403.019501 245.963806,401.838806 249.740417,401.539886
	C264.734161,400.353210 279.630219,401.276184 295.006409,402.649780
z"/>
<path fill="currentColor" opacity="1.000000" stroke="none"
	d="
M343.296814,542.111694
	C334.771912,541.118774 326.707275,539.963379 318.601593,539.413513
	C294.028503,537.746582 269.417572,536.769165 244.788986,537.447510
	C229.873520,537.858337 214.976151,538.925903 200.138550,539.694824
	C198.808731,537.864380 199.750107,536.313843 200.253464,534.806641
	C205.629166,518.711670 211.087769,502.644165 216.392365,486.525879
	C217.429352,483.374939 218.785950,481.704987 222.521866,481.373505
	C238.501129,479.955597 254.490875,480.359558 270.438507,481.112183
	C293.330017,482.192505 316.027100,485.221985 338.555145,489.532867
	C369.234314,495.403503 398.769806,504.815369 427.359711,517.355469
	C455.993286,529.914734 482.664307,545.912781 508.511230,563.353638
	C511.671387,565.486023 513.882385,565.357117 516.947632,563.231812
	C540.951782,546.588501 565.997437,531.705872 592.685913,519.747437
	C626.383789,504.648346 661.492371,493.984344 697.886597,487.889496
	C730.574585,482.415344 763.530640,479.726776 796.722412,480.662384
	C808.091187,480.982880 808.193665,480.896667 811.893982,491.705017
	C816.850464,506.182404 821.634766,520.718689 826.481506,535.233582
	C826.940369,536.607788 827.893982,537.961060 826.732056,539.665161
	C814.106323,539.092468 801.354431,538.816956 788.657410,537.833130
	C779.990479,537.161499 771.352722,537.421875 762.708557,537.423096
	C727.905823,537.428162 693.321472,540.087402 658.843201,545.061890
	C620.672974,550.569214 582.988953,558.173706 545.814941,568.366089
	C536.517090,570.915344 527.271973,573.661072 518.033020,576.418457
	C514.738159,577.401794 511.620819,577.490295 508.265076,576.461609
	C474.401947,566.080750 440.189209,557.013611 405.278320,550.931458
	C384.872253,547.376343 364.440277,543.787720 343.296814,542.111694
z"/>
<path fill="currentColor" opacity="1.000000" stroke="none"
	d="
M548.885132,424.862366
	C553.816528,425.182495 558.264160,425.502838 563.686340,425.893341
	C560.376709,430.229340 556.421326,432.653839 553.036926,435.588928
	C540.353516,446.588684 527.466064,457.353180 514.770447,468.339142
	C512.734009,470.101379 511.407593,470.401733 509.327362,468.501129
	C494.717163,455.152618 479.602539,442.383606 464.432678,429.679382
	C463.459564,428.864410 462.166199,428.207642 461.957153,425.850189
	C490.785645,423.767273 519.604248,424.827362 548.885132,424.862366
z"/>
<path fill="currentColor" opacity="1.000000" stroke="none"
	d="
M320.610474,199.680145
	C325.510315,207.965073 322.162964,212.922653 317.912201,217.462341
	C313.578888,222.090149 306.043976,222.509171 299.424225,218.608063
	C287.545868,211.608047 275.795258,204.390656 264.017242,197.221390
	C260.329926,194.976898 256.487244,192.892685 253.140854,190.205597
	C248.282104,186.304123 246.057098,181.126099 247.508072,174.750687
	C249.722610,165.020126 258.237701,161.075546 266.864014,166.037262
	C282.556152,175.063110 298.156647,184.248459 313.786285,193.382782
	C316.402740,194.911880 318.516846,197.022858 320.610474,199.680145
z"/>
<path fill="currentColor" opacity="1.000000" stroke="none"
	d="
M732.080811,215.200180
	C726.533081,218.685333 721.302490,222.087097 714.661560,220.914902
	C708.082886,219.753662 704.573120,215.065887 703.094604,209.176651
	C701.721924,203.708725 704.046326,198.775497 708.647400,195.699799
	C715.280029,191.265945 722.289307,187.390701 729.178772,183.346848
	C738.369812,177.952057 747.638306,172.688461 756.802307,167.248703
	C765.310425,162.198303 772.062927,162.957474 776.485962,169.666489
	C780.764465,176.156189 778.673523,186.175858 771.475159,190.848740
	C761.145020,197.554672 750.510010,203.790665 740.013794,210.241318
	C737.460388,211.810562 734.940796,213.434708 732.080811,215.200180
z"/>
<path fill="currentColor" opacity="1.000000" stroke="none"
	d="
M324.142517,338.808655
	C320.366180,343.793121 314.995911,345.944000 310.197906,348.869354
	C297.847168,356.399658 285.471588,363.891113 273.022919,371.257843
	C268.662445,373.838226 264.030396,375.979858 259.035675,372.592926
	C253.988129,369.170105 252.275681,364.221924 252.663773,358.328979
	C252.979828,353.529572 255.718460,350.454987 259.615112,348.068024
	C274.507965,338.945160 289.373444,329.777679 304.252441,320.632202
	C310.893127,316.550507 317.137238,316.565247 321.734406,320.656219
	C326.568085,324.957672 327.493347,331.313110 324.142517,338.808655
z"/>
<path fill="currentColor" opacity="1.000000" stroke="none"
	d="
M765.163208,346.769684
	C775.213135,353.103912 777.427002,362.830475 770.788879,370.305939
	C767.043884,374.523315 762.183899,375.835449 757.331970,372.981720
	C740.424072,363.036987 723.559937,353.005676 706.931702,342.603546
	C700.168030,338.372375 699.000000,329.603729 703.356812,322.749756
	C706.899414,317.176666 714.820618,315.785614 721.550110,319.879791
	C736.036560,328.693268 750.423645,337.669952 765.163208,346.769684
z"/>
<path fill="currentColor" opacity="1.000000" stroke="none"
	d="
M280.000122,255.639359
	C288.483673,255.645920 296.467804,255.595825 304.450653,255.674500
	C313.652039,255.765167 319.479767,261.462769 319.333984,270.083099
	C319.194702,278.320648 313.634003,283.350555 304.599823,283.357819
	C289.464294,283.369995 274.328674,283.389282 259.193298,283.339935
	C250.688828,283.312195 244.729599,277.605377 244.674301,269.593964
	C244.619400,261.641113 250.612457,255.766891 259.042297,255.660645
	C265.860565,255.574707 272.680756,255.640900 280.000122,255.639359
z"/>
<path fill="currentColor" opacity="1.000000" stroke="none"
	d="
M725.056152,283.360626
	C717.368652,283.840576 710.869019,283.019531 707.531189,275.233124
	C703.544312,265.932648 709.722961,255.797577 719.817688,255.697800
	C735.477905,255.542999 751.141602,255.568130 766.802307,255.702118
	C775.262817,255.774506 780.412048,261.259888 780.336426,269.622375
	C780.261719,277.880219 774.885437,283.301025 766.533203,283.338928
	C752.871033,283.400970 739.208435,283.359192 725.056152,283.360626
z"/>
</svg>